<?xml version="1.0" standalone="no"?>
<!DOCTYPE svg PUBLIC "-//W3C//DTD SVG 20010904//EN"
 "http://www.w3.org/TR/2001/REC-SVG-20010904/DTD/svg10.dtd">
<svg version="1.0" xmlns="http://www.w3.org/2000/svg"
 width="260.000000pt" height="260.000000pt" viewBox="0 0 260.000000 260.000000"
 preserveAspectRatio="xMidYMid meet">
<metadata>
Created by potrace 1.11, written by Peter Selinger 2001-2013
</metadata>
<g transform="translate(0.000000,260.000000) scale(0.100000,-0.100000)"
fill="#000000" stroke="none">
<path d="M425 2585 c-210 -58 -364 -216 -410 -420 -14 -61 -15 -175 -13 -895
l3 -825 23 -63 c61 -170 184 -294 352 -354 l65 -23 821 -3 c907 -3 903 -3
1027 59 126 62 229 180 279 319 l23 65 2 835 c3 905 4 882 -52 1003 -57 123
-188 240 -325 289 l-65 23 -840 2 c-686 1 -849 -1 -890 -12z"/>
</g>
</svg>
